<svg width="1042" height="1042" viewBox="0 0 1042 1042" fill="none" xmlns="http://www.w3.org/2000/svg" xmlns:xlink="http://www.w3.org/1999/xlink">
<path d="M0 479.632C0 253.531 0 140.481 70.2405 70.2405C140.481 0 253.531 0 479.632 0H562.369C788.469 0 901.52 0 971.76 70.2405C1042 140.481 1042 253.531 1042 479.632V562.369C1042 788.469 1042 901.52 971.76 971.76C901.52 1042 788.469 1042 562.369 1042H479.632C253.531 1042 140.481 1042 70.2405 971.76C0 901.52 0 788.469 0 562.369V479.632Z" fill="#110F15" style="fill:#110F15;fill:color(display-p3 0.0667 0.0588 0.0824);fill-opacity:1;"/>
<path d="M0 479.632C0 253.531 0 140.481 70.2405 70.2405C140.481 0 253.531 0 479.632 0H562.369C788.469 0 901.52 0 971.76 70.2405C1042 140.481 1042 253.531 1042 479.632V562.369C1042 788.469 1042 901.52 971.76 971.76C901.52 1042 788.469 1042 562.369 1042H479.632C253.531 1042 140.481 1042 70.2405 971.76C0 901.52 0 788.469 0 562.369V479.632Z" fill="url(#pattern0_2902_432)" style=""/>
<path d="M0 479.632C0 253.531 0 140.481 70.2405 70.2405C140.481 0 253.531 0 479.632 0H562.369C788.469 0 901.52 0 971.76 70.2405C1042 140.481 1042 253.531 1042 479.632V562.369C1042 788.469 1042 901.52 971.76 971.76C901.52 1042 788.469 1042 562.369 1042H479.632C253.531 1042 140.481 1042 70.2405 971.76C0 901.52 0 788.469 0 562.369V479.632Z" fill="url(#paint0_radial_2902_432)" style=""/>
<path d="M0 479.632C0 253.531 0 140.481 70.2405 70.2405C140.481 0 253.531 0 479.632 0H562.369C788.469 0 901.52 0 971.76 70.2405C1042 140.481 1042 253.531 1042 479.632V562.369C1042 788.469 1042 901.52 971.76 971.76C901.52 1042 788.469 1042 562.369 1042H479.632C253.531 1042 140.481 1042 70.2405 971.76C0 901.52 0 788.469 0 562.369V479.632Z" fill="url(#paint1_radial_2902_432)" style=""/>
<g style="mix-blend-mode:screen">
<path d="M439.837 319.703C468.772 216.636 483.24 165.103 511.413 165.103C539.586 165.103 554.053 216.636 582.989 319.702L597.775 372.371C603.289 392.011 606.046 401.831 612.921 408.706C619.797 415.582 629.617 418.339 649.256 423.852L701.925 438.639C804.991 467.574 856.525 482.041 856.525 510.214C856.525 538.387 804.991 552.855 701.925 581.79L649.256 596.576C629.617 602.09 619.797 604.847 612.921 611.723C606.046 618.598 603.289 628.418 597.775 648.058L582.989 700.726C554.053 803.793 539.586 855.326 511.413 855.326C483.24 855.326 468.772 803.793 439.837 700.726L425.051 648.058C419.537 628.418 416.78 618.598 409.905 611.723C403.029 604.847 393.209 602.09 373.569 596.576L320.901 581.79C217.834 552.855 166.301 538.387 166.301 510.214C166.301 482.041 217.834 467.574 320.901 438.639L373.569 423.852C393.209 418.339 403.029 415.582 409.905 408.706C416.78 401.831 419.537 392.011 425.051 372.371L439.837 319.703Z" fill="#0000FF" style="fill:#0000FF;fill:color(display-p3 0.0000 0.0000 1.0000);fill-opacity:1;"/>
</g>
<g style="mix-blend-mode:screen">
<path d="M449.43 329.295C478.365 226.229 492.832 174.695 521.005 174.695C549.178 174.695 563.646 226.229 592.581 329.295L607.367 381.964C612.881 401.604 615.638 411.423 622.514 418.299C629.389 425.174 639.209 427.931 658.849 433.445L711.517 448.231C814.584 477.167 866.117 491.634 866.117 519.807C866.117 547.98 814.584 562.448 711.517 591.383L658.849 606.169C639.209 611.683 629.389 614.44 622.514 621.315C615.638 628.191 612.881 638.011 607.367 657.651L592.581 710.319C563.646 813.386 549.178 864.919 521.005 864.919C492.832 864.919 478.365 813.386 449.43 710.319L434.643 657.651C429.13 638.011 426.373 628.191 419.497 621.315C412.622 614.44 402.802 611.683 383.162 606.169L330.494 591.383C227.427 562.448 175.894 547.98 175.894 519.807C175.894 491.634 227.427 477.167 330.494 448.231L383.162 433.445C402.802 427.931 412.622 425.174 419.497 418.299C426.373 411.423 429.13 401.604 434.643 381.964L449.43 329.295Z" fill="#00FF00" style="fill:#00FF00;fill:color(display-p3 0.0000 1.0000 0.0000);fill-opacity:1;"/>
</g>
<g style="mix-blend-mode:screen">
<path d="M455.425 335.288C484.36 232.221 498.828 180.687 527.001 180.688C555.174 180.688 569.641 232.221 598.577 335.287L613.363 387.956C618.877 407.596 621.633 417.416 628.509 424.291C635.384 431.167 645.204 433.924 664.844 439.437L717.513 454.224C820.579 483.159 872.113 497.626 872.113 525.799C872.113 553.972 820.579 568.44 717.513 597.375L664.844 612.161C645.204 617.675 635.384 620.432 628.509 627.308C621.633 634.183 618.877 644.003 613.363 663.643L598.577 716.311C569.641 819.378 555.174 870.911 527.001 870.911C498.828 870.911 484.36 819.378 455.425 716.311L440.639 663.643C435.125 644.003 432.368 634.183 425.493 627.308C418.617 620.432 408.797 617.675 389.157 612.161L336.489 597.375C233.422 568.44 181.889 553.972 181.889 525.799C181.889 497.626 233.422 483.159 336.489 454.224L389.157 439.437C408.797 433.924 418.617 431.167 425.493 424.291C432.368 417.416 435.125 407.596 440.639 387.956L455.425 335.288Z" fill="#FF0000" style="fill:#FF0000;fill:color(display-p3 1.0000 0.0000 0.0000);fill-opacity:1;"/>
</g>
<defs>
<radialGradient id="paint0_radial_2902_432" cx="0" cy="0" r="1" gradientUnits="userSpaceOnUse" gradientTransform="translate(521.579 521.579) rotate(90) scale(452.189 434.719)">
<stop stop-color="#110F15" stop-opacity="0.85" style="stop-color:#110F15;stop-color:color(display-p3 0.0667 0.0588 0.0824);stop-opacity:0.85;"/>
<stop offset="1" stop-color="#110F15" style="stop-color:#110F15;stop-color:color(display-p3 0.0667 0.0588 0.0824);stop-opacity:1;"/>
</radialGradient>
<radialGradient id="paint1_radial_2902_432" cx="0" cy="0" r="1" gradientUnits="userSpaceOnUse" gradientTransform="translate(521.579 521.579) rotate(90) scale(611.785 588.15)">
<stop stop-color="#110F15" stop-opacity="0" style="stop-color:none;stop-opacity:0;"/>
<stop offset="1" stop-color="#110F15" style="stop-color:#110F15;stop-color:color(display-p3 0.0667 0.0588 0.0824);stop-opacity:1;"/>
</radialGradient>
<pattern id="pattern0_2902_432" patternUnits="userSpaceOnUse" patternTransform="matrix(103.4 0 0 103.4 469.3 469.3)" preserveAspectRatio="none" viewBox="0 0 517 517" width="1" height="1">
<g id="pattern0_2902_432_inner">
<mask id="path-2-inside-1_2902_432" fill="white">
<path d="M0 0H517V517H0V0Z"/>
</mask>
<path d="M0 517H-40V557H0V517ZM517 517V477H0V517V557H517V517ZM0 517H40V0H0H-40V517H0Z" fill="#DECFFD" style="fill:#DECFFD;fill:color(display-p3 0.8716 0.8104 0.9938);fill-opacity:1;" mask="url(#path-2-inside-1_2902_432)"/>
</g>
</pattern></defs>
</svg>
